<?xml version="1.0" standalone="no"?>
<!DOCTYPE svg PUBLIC "-//W3C//DTD SVG 20010904//EN"
 "http://www.w3.org/TR/2001/REC-SVG-20010904/DTD/svg10.dtd">
<svg version="1.0" xmlns="http://www.w3.org/2000/svg"
 width="555.000000pt" height="555.000000pt" viewBox="0 0 555.000000 555.000000"
 preserveAspectRatio="xMidYMid meet">
<metadata>
Created by potrace 1.14, written by Peter Selinger 2001-2017
</metadata>
<g transform="translate(0.000000,555.000000) scale(0.100000,-0.100000)"
fill="#000000" stroke="none">
<path d="M1850 5510 c-58 -19 -82 -31 -190 -97 -36 -21 -81 -45 -100 -53 -82
-32 -245 -138 -327 -213 -32 -29 -72 -62 -89 -73 -80 -49 -118 -150 -80 -208
22 -35 20 -54 -10 -93 -34 -45 -38 -141 -9 -228 17 -52 20 -87 20 -265 l0
-205 -42 -121 c-48 -139 -100 -256 -137 -310 -28 -41 -68 -52 -98 -26 -23 19
-47 9 -61 -27 -10 -26 -13 -28 -54 -23 -51 6 -69 -6 -77 -53 -4 -19 -22 -53
-42 -76 -46 -55 -51 -65 -91 -183 -19 -56 -48 -126 -65 -156 -44 -79 -66 -122
-72 -143 -3 -9 -16 -21 -28 -26 -33 -12 -55 -40 -73 -90 -19 -56 -19 -121 1
-149 17 -24 22 -26 44 -12 12 7 12 12 -4 29 -15 16 -17 30 -13 66 8 55 32 104
55 111 35 11 46 21 58 56 6 19 32 71 57 114 24 43 57 117 72 164 34 106 47
132 96 196 21 28 42 64 45 81 5 27 11 32 43 35 20 3 39 0 42 -5 9 -13 39 -1
39 16 0 10 13 14 46 13 44 -1 49 -5 96 -59 28 -31 78 -74 112 -93 33 -20 63
-39 66 -43 9 -12 102 -66 175 -100 90 -43 211 -64 269 -47 l41 12 -3 72 c-2
40 -1 72 2 72 13 0 87 -110 101 -150 8 -24 26 -57 38 -74 13 -17 36 -62 51
-101 15 -38 36 -79 45 -90 10 -11 25 -33 33 -50 8 -16 25 -48 37 -70 57 -107
213 -552 247 -705 22 -103 87 -293 145 -427 27 -61 49 -114 49 -118 0 -11 149
-381 199 -494 28 -62 68 -136 89 -165 22 -28 45 -61 51 -73 15 -29 41 -30 41
-3 0 23 -21 59 -63 109 -15 18 -37 52 -47 75 -79 175 -162 378 -220 541 -16
44 -45 116 -65 160 -57 122 -119 312 -150 455 -9 41 -28 107 -42 145 -13 39
-33 97 -43 130 -19 64 -46 136 -102 275 -34 83 -45 105 -100 199 -14 25 -40
75 -57 111 -17 36 -37 76 -45 90 -9 14 -33 61 -54 105 -21 44 -60 103 -86 132
-41 45 -46 55 -36 73 6 11 13 20 16 20 6 0 79 -55 115 -88 15 -13 33 -24 40
-26 8 -1 35 -14 60 -29 37 -22 58 -27 110 -27 59 0 71 4 138 45 40 25 75 45
77 45 13 0 131 86 147 107 11 13 40 38 65 55 26 18 56 42 67 55 11 13 36 32
54 42 51 26 57 41 43 98 -16 62 -2 137 36 189 26 36 32 38 137 60 61 13 126
27 145 32 101 26 177 89 224 187 28 57 29 64 23 161 -4 79 -12 116 -32 165
-15 35 -31 93 -36 128 -7 49 -23 90 -65 167 -32 57 -64 104 -74 107 -12 3 -20
19 -25 48 -13 78 -178 358 -227 386 -35 19 -86 15 -119 -8 -54 -38 -30 -66 29
-32 24 14 37 15 59 7 37 -13 32 -28 -12 -32 -27 -2 -35 -8 -35 -23 0 -16 7
-19 48 -19 52 -1 64 -8 103 -61 65 -86 120 -226 156 -394 10 -48 35 -54 43
-10 l6 30 19 -35 c35 -63 45 -91 56 -159 5 -36 21 -89 34 -117 35 -74 45 -218
19 -277 -29 -68 -81 -124 -137 -151 -46 -21 -207 -66 -237 -66 -12 0 -60 -19
-109 -43 -40 -19 -73 -98 -74 -175 -1 -37 3 -77 7 -89 7 -20 4 -25 -25 -37
-32 -13 -72 -46 -172 -140 -50 -47 -104 -85 -212 -151 -91 -55 -161 -69 -212
-42 -15 8 -46 24 -68 36 -60 32 -184 137 -235 199 -58 71 -99 154 -111 221 -9
58 -20 77 -38 67 -37 -23 39 -232 114 -315 41 -45 41 -49 16 -116 -19 -49 -21
-104 -7 -157 7 -23 5 -27 -24 -33 -92 -20 -243 37 -431 162 -101 68 -192 158
-173 171 21 16 116 199 134 260 9 28 19 42 30 42 17 0 54 28 137 104 60 54
127 166 159 264 14 46 29 80 33 77 3 -4 7 -31 8 -61 1 -31 9 -66 18 -80 17
-26 71 -64 93 -64 21 0 13 40 -10 49 -51 19 -60 43 -57 139 4 82 7 94 35 134
26 35 39 44 67 46 21 2 46 -4 61 -14 21 -13 26 -24 26 -60 0 -37 3 -44 20 -44
18 0 20 7 20 55 0 52 -2 56 -37 80 -28 19 -50 25 -89 25 -46 0 -55 -4 -79 -32
-15 -18 -34 -47 -42 -64 -11 -22 -21 -30 -33 -27 -22 6 -29 -6 -68 -124 -41
-122 -99 -220 -169 -282 -84 -75 -83 -76 -48 79 22 99 14 355 -16 458 -27 96
-25 167 6 208 29 38 34 104 10 124 -38 31 3 129 66 162 15 7 58 42 97 78 67
63 228 166 324 208 26 11 67 34 90 50 97 66 219 113 276 106 61 -8 245 -56
296 -77 38 -16 52 -18 66 -9 15 9 21 7 34 -13 9 -13 16 -28 16 -34 0 -13 32
-23 42 -13 14 14 -24 81 -69 123 -45 44 -103 61 -103 32 0 -12 12 -23 32 -31
17 -6 29 -14 26 -17 -3 -3 -16 -1 -29 4 -27 11 -131 40 -231 65 -82 20 -117
19 -188 -4z"/>
<path d="M2567 4401 c-88 -89 -162 -134 -283 -171 -102 -32 -119 -43 -104 -71
11 -19 40 -26 150 -35 71 -6 80 -5 80 10 0 19 -7 22 -72 31 -27 3 -48 10 -48
14 0 5 29 18 64 29 134 44 351 237 291 258 -6 2 -41 -27 -78 -65z"/>
<path d="M2315 4380 c-33 -28 -75 -55 -95 -61 -19 -6 -57 -23 -85 -36 -57 -29
-89 -34 -200 -32 -125 2 -134 0 -175 -26 -40 -25 -60 -31 -60 -17 0 4 9 39 20
77 24 87 24 85 1 85 -15 0 -25 -18 -49 -92 -16 -51 -27 -99 -25 -105 8 -22 91
-16 126 9 27 20 44 22 169 23 129 1 143 3 191 28 29 14 78 37 110 51 66 29
157 103 157 129 0 28 -21 20 -85 -33z"/>
<path d="M2453 4130 c-25 -10 -31 -36 -10 -43 19 -7 58 15 55 31 -4 20 -17 23
-45 12z"/>
<path d="M2515 4083 c-11 -2 -30 -6 -42 -9 -26 -5 -31 -32 -8 -41 19 -7 107
16 117 31 15 23 -12 31 -67 19z"/>
<path d="M2205 4010 c-18 -29 69 -103 114 -98 35 4 37 24 3 36 -16 5 -45 24
-64 41 -39 34 -44 36 -53 21z"/>
<path d="M2003 3594 c-7 -19 31 -53 60 -54 25 0 21 26 -9 49 -32 25 -43 26
-51 5z"/>
<path d="M1027 2873 c-14 -13 -6 -23 31 -42 33 -17 43 -31 80 -118 24 -54 76
-156 117 -228 76 -133 124 -242 146 -330 7 -28 18 -57 25 -65 6 -8 26 -62 43
-120 18 -58 39 -123 46 -145 19 -57 31 -122 50 -270 9 -71 20 -148 25 -169 5
-23 5 -47 -1 -57 -9 -18 -4 -34 50 -153 16 -34 33 -78 39 -97 14 -47 70 -179
88 -206 8 -13 21 -23 29 -23 16 0 21 35 6 44 -17 11 -112 261 -135 356 -25
102 -44 204 -56 295 -18 144 -39 241 -81 378 -22 71 -38 134 -36 140 2 7 0 20
-5 30 -5 9 -17 63 -28 120 -20 108 -74 335 -112 477 -17 61 -28 86 -40 88 -21
4 -24 -24 -8 -78 29 -97 91 -353 86 -357 -2 -3 -20 26 -39 63 -18 38 -51 98
-73 134 -22 36 -45 76 -51 90 -6 14 -32 69 -57 123 -39 85 -50 100 -80 112
-39 17 -50 18 -59 8z"/>
<path d="M315 2688 c-14 -42 -25 -97 -25 -122 0 -36 -10 -28 -19 16 -5 24 -12
33 -26 33 -13 0 -19 -6 -17 -15 2 -8 8 -69 13 -135 4 -66 24 -196 44 -290 20
-93 42 -204 50 -245 60 -322 81 -424 111 -555 47 -203 103 -410 124 -465 10
-25 35 -115 55 -200 36 -150 117 -382 177 -505 49 -99 121 -205 141 -205 27 0
21 20 -28 93 -57 84 -138 262 -200 436 -17 48 -13 51 19 14 33 -38 89 -36 184
6 74 33 305 87 322 76 5 -3 22 -27 37 -53 15 -26 57 -92 93 -147 37 -55 84
-133 105 -173 37 -68 56 -85 70 -62 8 14 -60 136 -162 292 -46 69 -85 133 -89
141 -4 11 7 16 48 21 29 4 107 21 173 37 184 47 205 51 219 46 7 -3 19 -27 26
-54 21 -81 43 -147 50 -158 4 -5 20 -47 35 -92 21 -65 31 -83 46 -83 10 0 19
6 19 14 0 8 -22 74 -49 148 -62 170 -80 240 -63 246 16 5 15 29 -1 35 -16 6
-137 -19 -297 -61 -63 -17 -137 -34 -165 -37 -206 -26 -370 -63 -447 -101 -56
-28 -100 -31 -124 -7 -44 44 -112 265 -140 453 -46 310 -106 627 -144 755 -16
55 -45 186 -64 290 -20 105 -48 240 -62 301 -27 112 -28 158 -8 287 5 30 3 37
-10 37 -9 0 -18 -6 -21 -12z m4 -340 c11 -51 28 -133 36 -183 27 -157 65 -331
90 -417 14 -45 37 -143 50 -218 14 -74 34 -182 45 -240 28 -146 34 -210 20
-188 -17 28 -111 440 -154 678 -26 144 -60 316 -96 480 -25 119 -33 180 -22
180 5 0 19 -42 31 -92z"/>
</g>
</svg>
